<svg width="2048" height="2048" viewBox="0 0 2048 2048" fill="none" xmlns="http://www.w3.org/2000/svg">
<rect width="2048" height="2048" fill="#090909"/>
<path d="M431.092 1163.74C421.193 1152.31 412.66 1139.34 405.492 1124.83C398.324 1110.33 392.863 1095.09 389.108 1079.14C385.353 1063.18 383.604 1047.31 383.86 1031.52C383.604 1015.73 385.353 999.861 389.108 983.904C392.863 967.947 398.324 952.715 405.492 938.208C412.66 923.701 421.193 910.731 431.092 899.296L451.06 914.144C436.212 931.808 425.375 950.368 418.548 969.824C411.807 989.195 408.393 1009.76 408.308 1031.52C408.308 1045.77 409.759 1059.59 412.66 1072.99C415.647 1086.3 420.297 1099.36 426.612 1112.16C433.012 1124.87 441.161 1137.12 451.06 1148.9L431.092 1163.74ZM469.45 955.104V929.12H496.202V955.104H469.45ZM469.45 1116V977.76H496.202V1116H469.45ZM653.168 931.68V1116H626.416V931.68H653.168ZM582 973.92C591.984 973.92 600.432 975.755 607.344 979.424C614.256 983.008 619.888 988.043 624.24 994.528C628.677 1001.01 631.877 1008.74 633.84 1017.7C635.803 1026.66 636.784 1036.43 636.784 1047.01C636.784 1057.59 635.76 1067.36 633.712 1076.32C631.749 1085.19 628.549 1092.87 624.112 1099.36C619.76 1105.76 614.128 1110.79 607.216 1114.46C600.304 1118.05 591.899 1119.84 582 1119.84C572.699 1119.84 564.165 1118.05 556.4 1114.46C548.72 1110.88 542.107 1105.89 536.56 1099.49C531.099 1093 526.832 1085.32 523.76 1076.45C520.773 1067.49 519.28 1057.67 519.28 1047.01C519.28 1036.17 520.816 1026.27 523.888 1017.31C526.96 1008.35 531.227 1000.67 536.688 994.272C542.235 987.872 548.848 982.88 556.528 979.296C564.293 975.712 572.784 973.92 582 973.92ZM587.12 999.136C580.549 999.136 574.789 1000.33 569.84 1002.72C564.891 1005.02 560.752 1008.31 557.424 1012.58C554.181 1016.76 551.749 1021.79 550.128 1027.68C548.507 1033.48 547.696 1039.93 547.696 1047.01C547.696 1054.18 548.507 1060.7 550.128 1066.59C551.835 1072.48 554.309 1077.51 557.552 1081.7C560.88 1085.79 565.019 1088.99 569.968 1091.3C574.917 1093.51 580.635 1094.62 587.12 1094.62C593.861 1094.62 599.664 1093.47 604.528 1091.17C609.477 1088.78 613.573 1085.49 616.816 1081.31C620.059 1077.13 622.448 1072.14 623.984 1066.34C625.605 1060.45 626.416 1054.01 626.416 1047.01C626.416 1039.67 625.563 1033.06 623.856 1027.17C622.235 1021.28 619.76 1016.29 616.432 1012.19C613.104 1008.01 609.008 1004.81 604.144 1002.59C599.28 1000.29 593.605 999.136 587.12 999.136ZM741.568 1094.88C750.272 1094.88 757.525 1093.05 763.328 1089.38C769.216 1085.62 773.824 1080.12 777.152 1072.86L803.52 1080.93C800.789 1087.16 797.376 1092.7 793.28 1097.57C789.184 1102.35 784.491 1106.4 779.2 1109.73C773.995 1112.97 768.192 1115.45 761.792 1117.15C755.477 1118.94 748.736 1119.84 741.568 1119.84C731.413 1119.84 722.155 1118.09 713.792 1114.59C705.429 1111.09 698.261 1106.14 692.288 1099.74C686.315 1093.34 681.707 1085.66 678.464 1076.7C675.221 1067.66 673.6 1057.72 673.6 1046.88C673.6 1035.87 675.221 1025.89 678.464 1016.93C681.792 1007.88 686.4 1000.2 692.288 993.888C698.176 987.488 705.259 982.581 713.536 979.168C721.899 975.669 731.157 973.92 741.312 973.92C752.064 973.92 761.579 975.797 769.856 979.552C778.133 983.307 785.003 988.683 790.464 995.68C796.011 1002.59 800.021 1011.04 802.496 1021.02C805.056 1030.92 805.995 1042.06 805.312 1054.43H778.048L777.92 1036.38C777.493 1024.18 774.08 1014.75 767.68 1008.1C761.28 1001.35 752.491 997.984 741.312 997.984C735.083 997.984 729.536 999.093 724.672 1001.31C719.808 1003.45 715.712 1006.6 712.384 1010.78C709.056 1014.97 706.496 1020.09 704.704 1026.14C702.912 1032.12 702.016 1038.9 702.016 1046.5C702.016 1054.09 702.912 1060.92 704.704 1066.98C706.496 1072.95 709.099 1078.03 712.512 1082.21C715.925 1086.3 720.064 1089.46 724.928 1091.68C729.877 1093.81 735.424 1094.88 741.568 1094.88ZM799.68 1033.57L805.312 1054.43H696.384L697.024 1033.57H799.68ZM886.638 1094.88C895.342 1094.88 902.595 1093.05 908.398 1089.38C914.286 1085.62 918.894 1080.12 922.222 1072.86L948.59 1080.93C945.859 1087.16 942.446 1092.7 938.35 1097.57C934.254 1102.35 929.561 1106.4 924.27 1109.73C919.065 1112.97 913.262 1115.45 906.862 1117.15C900.547 1118.94 893.806 1119.84 886.638 1119.84C876.483 1119.84 867.225 1118.09 858.862 1114.59C850.499 1111.09 843.331 1106.14 837.358 1099.74C831.385 1093.34 826.777 1085.66 823.534 1076.7C820.291 1067.66 818.67 1057.72 818.67 1046.88C818.67 1035.87 820.291 1025.89 823.534 1016.93C826.862 1007.88 831.47 1000.2 837.358 993.888C843.246 987.488 850.329 982.581 858.606 979.168C866.969 975.669 876.227 973.92 886.382 973.92C897.134 973.92 906.649 975.797 914.926 979.552C923.203 983.307 930.073 988.683 935.534 995.68C941.081 1002.59 945.091 1011.04 947.566 1021.02C950.126 1030.92 951.065 1042.06 950.382 1054.43H923.118L922.99 1036.38C922.563 1024.18 919.15 1014.75 912.75 1008.1C906.35 1001.35 897.561 997.984 886.382 997.984C880.153 997.984 874.606 999.093 869.742 1001.31C864.878 1003.45 860.782 1006.6 857.454 1010.78C854.126 1014.97 851.566 1020.09 849.774 1026.14C847.982 1032.12 847.086 1038.9 847.086 1046.5C847.086 1054.09 847.982 1060.92 849.774 1066.98C851.566 1072.95 854.169 1078.03 857.582 1082.21C860.995 1086.3 865.134 1089.46 869.998 1091.68C874.947 1093.81 880.494 1094.88 886.638 1094.88ZM944.75 1033.57L950.382 1054.43H841.454L842.094 1033.57H944.75ZM967.67 1177.44V977.76H994.422V1177.44H967.67ZM1038.84 1119.84C1028.85 1119.84 1020.41 1118.05 1013.49 1114.46C1006.58 1110.79 1000.91 1105.72 996.47 1099.23C992.118 1092.75 988.961 1085.02 986.998 1076.06C985.035 1067.1 984.054 1057.33 984.054 1046.75C984.054 1036.17 985.035 1026.44 986.998 1017.57C989.046 1008.61 992.246 1000.93 996.598 994.528C1001.04 988.043 1006.71 983.008 1013.62 979.424C1020.53 975.755 1028.94 973.92 1038.84 973.92C1048.22 973.92 1056.76 975.712 1064.44 979.296C1072.12 982.88 1078.69 987.915 1084.15 994.4C1089.7 1000.8 1093.96 1008.48 1096.95 1017.44C1100.02 1026.31 1101.56 1036.09 1101.56 1046.75C1101.56 1057.59 1100.02 1067.49 1096.95 1076.45C1093.88 1085.41 1089.57 1093.09 1084.02 1099.49C1078.56 1105.89 1071.99 1110.88 1064.31 1114.46C1056.63 1118.05 1048.14 1119.84 1038.84 1119.84ZM1033.72 1094.62C1040.29 1094.62 1046.05 1093.47 1051 1091.17C1055.95 1088.78 1060.04 1085.49 1063.29 1081.31C1066.61 1077.05 1069.09 1072.01 1070.71 1066.21C1072.33 1060.32 1073.14 1053.83 1073.14 1046.75C1073.14 1039.58 1072.29 1033.06 1070.58 1027.17C1068.96 1021.28 1066.49 1016.29 1063.16 1012.19C1059.92 1008.01 1055.82 1004.81 1050.87 1002.59C1046.01 1000.29 1040.29 999.136 1033.72 999.136C1026.98 999.136 1021.13 1000.33 1016.18 1002.72C1011.32 1005.02 1007.26 1008.27 1004.02 1012.45C1000.78 1016.63 998.347 1021.62 996.726 1027.42C995.19 1033.23 994.422 1039.67 994.422 1046.75C994.422 1054.09 995.233 1060.7 996.854 1066.59C998.561 1072.48 1001.08 1077.51 1004.41 1081.7C1007.73 1085.79 1011.83 1088.99 1016.69 1091.3C1021.56 1093.51 1027.23 1094.62 1033.72 1094.62ZM1175.11 1119.71C1166.66 1119.71 1159.02 1118.77 1152.2 1116.9C1145.37 1115.1 1139.36 1112.42 1134.15 1108.83C1129.03 1105.25 1124.81 1100.81 1121.48 1095.52C1118.15 1090.23 1115.76 1084.13 1114.31 1077.22L1141.83 1072.86C1143.79 1080.63 1147.59 1086.47 1153.22 1090.4C1158.94 1094.24 1166.41 1096.16 1175.62 1096.16C1184.16 1096.16 1190.94 1094.5 1195.97 1091.17C1201.01 1087.84 1203.53 1083.19 1203.53 1077.22C1203.53 1075.42 1203.31 1073.85 1202.89 1072.48C1202.54 1071.11 1201.86 1069.83 1200.84 1068.64C1199.9 1067.36 1198.58 1066.25 1196.87 1065.31C1195.25 1064.29 1193.16 1063.26 1190.6 1062.24C1188.21 1061.39 1185.01 1060.36 1181 1059.17C1177.07 1057.97 1172.46 1056.65 1167.17 1055.2C1159.58 1053.24 1152.8 1051.15 1146.82 1048.93C1140.85 1046.71 1135.77 1044.06 1131.59 1040.99C1127.49 1037.83 1124.34 1034.17 1122.12 1029.98C1119.9 1025.8 1118.79 1020.81 1118.79 1015.01C1118.79 1008.86 1120.07 1003.27 1122.63 998.24C1125.28 993.205 1128.94 988.896 1133.64 985.312C1138.42 981.643 1144.09 978.827 1150.66 976.864C1157.32 974.901 1164.7 973.92 1172.81 973.92C1180.66 973.92 1187.87 974.901 1194.44 976.864C1201.09 978.741 1206.9 981.472 1211.85 985.056C1216.88 988.555 1220.98 992.821 1224.13 997.856C1227.29 1002.81 1229.3 1008.35 1230.15 1014.5L1202.76 1019.49C1202.33 1016.07 1201.26 1013 1199.56 1010.27C1197.94 1007.46 1195.76 1005.11 1193.03 1003.23C1190.38 1001.35 1187.27 999.904 1183.69 998.88C1180.1 997.856 1176.18 997.344 1171.91 997.344C1168.07 997.344 1164.53 997.771 1161.29 998.624C1158.13 999.477 1155.36 1000.63 1152.97 1002.08C1150.66 1003.53 1148.83 1005.28 1147.46 1007.33C1146.18 1009.29 1145.54 1011.51 1145.54 1013.98C1145.54 1016.37 1146.18 1018.42 1147.46 1020.13C1148.74 1021.83 1150.45 1023.33 1152.58 1024.61C1154.72 1025.89 1157.19 1027 1160.01 1027.94C1162.82 1028.87 1165.77 1029.81 1168.84 1030.75C1172.42 1031.78 1176.39 1032.97 1180.74 1034.34C1185.18 1035.62 1189.87 1036.98 1194.82 1038.43C1201.31 1040.39 1206.81 1042.57 1211.33 1044.96C1215.94 1047.35 1219.7 1050.04 1222.6 1053.02C1225.5 1056.01 1227.59 1059.42 1228.87 1063.26C1230.24 1067.02 1230.92 1071.29 1230.92 1076.06C1230.92 1082.81 1229.64 1088.91 1227.08 1094.37C1224.52 1099.74 1220.81 1104.31 1215.94 1108.06C1211.16 1111.82 1205.32 1114.68 1198.41 1116.64C1191.58 1118.69 1183.81 1119.71 1175.11 1119.71ZM1311.59 1119.84C1301.27 1119.84 1291.92 1118.09 1283.56 1114.59C1275.28 1111.01 1268.2 1105.97 1262.31 1099.49C1256.42 1093 1251.86 1085.28 1248.62 1076.32C1245.46 1067.36 1243.88 1057.5 1243.88 1046.75C1243.88 1036 1245.46 1026.14 1248.62 1017.18C1251.86 1008.22 1256.42 1000.54 1262.31 994.144C1268.2 987.744 1275.33 982.795 1283.69 979.296C1292.05 975.712 1301.35 973.92 1311.59 973.92C1321.92 973.92 1331.26 975.712 1339.62 979.296C1347.99 982.795 1355.11 987.787 1361 994.272C1366.89 1000.67 1371.41 1008.35 1374.57 1017.31C1377.81 1026.27 1379.43 1036.09 1379.43 1046.75C1379.43 1057.59 1377.81 1067.49 1374.57 1076.45C1371.41 1085.41 1366.85 1093.13 1360.87 1099.62C1354.98 1106.02 1347.86 1111.01 1339.5 1114.59C1331.22 1118.09 1321.92 1119.84 1311.59 1119.84ZM1311.59 1094.62C1317.99 1094.62 1323.62 1093.51 1328.49 1091.3C1333.44 1088.99 1337.58 1085.79 1340.9 1081.7C1344.23 1077.51 1346.75 1072.52 1348.46 1066.72C1350.16 1060.83 1351.02 1054.18 1351.02 1046.75C1351.02 1039.41 1350.16 1032.8 1348.46 1026.91C1346.75 1020.94 1344.23 1015.9 1340.9 1011.81C1337.58 1007.71 1333.44 1004.6 1328.49 1002.46C1323.62 1000.25 1317.99 999.136 1311.59 999.136C1305.11 999.136 1299.39 1000.25 1294.44 1002.46C1289.58 1004.68 1285.48 1007.84 1282.15 1011.94C1278.91 1016.03 1276.43 1021.02 1274.73 1026.91C1273.11 1032.8 1272.3 1039.41 1272.3 1046.75C1272.3 1054.18 1273.15 1060.87 1274.86 1066.85C1276.56 1072.74 1279.08 1077.73 1282.41 1081.82C1285.74 1085.92 1289.83 1089.08 1294.7 1091.3C1299.65 1093.51 1305.28 1094.62 1311.59 1094.62ZM1424.07 1053.79C1424.07 1060.53 1424.88 1066.46 1426.5 1071.58C1428.13 1076.7 1430.43 1080.97 1433.42 1084.38C1436.4 1087.71 1440.03 1090.27 1444.3 1092.06C1448.65 1093.77 1453.55 1094.62 1459.02 1094.62C1464.48 1094.62 1469.38 1093.77 1473.74 1092.06C1478.09 1090.36 1481.8 1087.84 1484.87 1084.51C1487.94 1081.1 1490.29 1076.83 1491.91 1071.71C1493.53 1066.59 1494.34 1060.62 1494.34 1053.79L1500.36 1078.62C1499.51 1083.4 1498.1 1088.27 1496.14 1093.22C1494.17 1098.08 1491.31 1102.52 1487.56 1106.53C1483.89 1110.45 1479.2 1113.65 1473.48 1116.13C1467.76 1118.6 1460.77 1119.84 1452.49 1119.84C1444.3 1119.84 1436.79 1118.65 1429.96 1116.26C1423.13 1113.87 1417.29 1110.15 1412.42 1105.12C1407.65 1100.09 1403.93 1093.77 1401.29 1086.18C1398.64 1078.5 1397.32 1069.45 1397.32 1059.04V977.76H1424.07V1053.79ZM1521.1 977.76V1116H1494.34V977.76H1521.1ZM1551.76 1116V927.84H1578.51V1116H1551.76ZM1616.82 1163.74L1596.85 1148.9C1606.75 1137.12 1614.86 1124.87 1621.17 1112.16C1627.57 1099.36 1632.22 1086.3 1635.13 1072.99C1638.11 1059.59 1639.61 1045.77 1639.61 1031.52C1639.52 1009.76 1636.06 989.195 1629.24 969.824C1622.5 950.368 1611.7 931.808 1596.85 914.144L1616.82 899.296C1626.72 910.731 1635.25 923.701 1642.42 938.208C1649.59 952.715 1655.05 967.947 1658.81 983.904C1662.56 999.861 1664.31 1015.73 1664.05 1031.52C1664.31 1047.31 1662.56 1063.18 1658.81 1079.14C1655.05 1095.09 1649.59 1110.33 1642.42 1124.83C1635.25 1139.34 1626.72 1152.31 1616.82 1163.74Z" fill="#F0F0F0"/>
</svg>
