<svg width="1282" height="279" viewBox="0 0 1282 279" fill="none" xmlns="http://www.w3.org/2000/svg">
<path d="M48.092 264.744C38.1934 253.309 29.66 240.339 22.492 225.832C15.324 211.325 9.86269 196.093 6.10802 180.136C2.35335 164.179 0.60402 148.307 0.86002 132.52C0.60402 116.733 2.35335 100.861 6.10802 84.904C9.86269 68.9467 15.324 53.7147 22.492 39.208C29.66 24.7013 38.1934 11.7307 48.092 0.29599L68.06 15.144C53.212 32.808 42.3747 51.368 35.548 70.824C28.8067 90.1947 25.3934 110.76 25.308 132.52C25.308 146.771 26.7587 160.595 29.66 173.992C32.6467 187.304 37.2974 200.36 43.612 213.16C50.012 225.875 58.1614 238.12 68.06 249.896L48.092 264.744ZM86.45 56.104V30.12L113.202 30.12V56.104L86.45 56.104ZM86.45 217L86.45 78.76H113.202L113.202 217H86.45ZM270.168 32.68L270.168 217H243.416L243.416 32.68L270.168 32.68ZM199 74.92C208.984 74.92 217.432 76.7547 224.344 80.424C231.256 84.008 236.888 89.0427 241.24 95.528C245.677 102.013 248.877 109.736 250.84 118.696C252.803 127.656 253.784 137.427 253.784 148.008C253.784 158.589 252.76 168.36 250.712 177.32C248.749 186.195 245.549 193.875 241.112 200.36C236.76 206.76 231.128 211.795 224.216 215.464C217.304 219.048 208.899 220.84 199 220.84C189.699 220.84 181.165 219.048 173.4 215.464C165.72 211.88 159.107 206.888 153.56 200.488C148.099 194.003 143.832 186.323 140.76 177.448C137.773 168.488 136.28 158.675 136.28 148.008C136.28 137.171 137.816 127.272 140.888 118.312C143.96 109.352 148.227 101.672 153.688 95.272C159.235 88.872 165.848 83.88 173.528 80.296C181.293 76.712 189.784 74.92 199 74.92ZM204.12 100.136C197.549 100.136 191.789 101.331 186.84 103.72C181.891 106.024 177.752 109.309 174.424 113.576C171.181 117.757 168.749 122.792 167.128 128.68C165.507 134.483 164.696 140.925 164.696 148.008C164.696 155.176 165.507 161.704 167.128 167.592C168.835 173.48 171.309 178.515 174.552 182.696C177.88 186.792 182.019 189.992 186.968 192.296C191.917 194.515 197.635 195.624 204.12 195.624C210.861 195.624 216.664 194.472 221.528 192.168C226.477 189.779 230.573 186.493 233.816 182.312C237.059 178.131 239.448 173.139 240.984 167.336C242.605 161.448 243.416 155.005 243.416 148.008C243.416 140.669 242.563 134.056 240.856 128.168C239.235 122.28 236.76 117.288 233.432 113.192C230.104 109.011 226.008 105.811 221.144 103.592C216.28 101.288 210.605 100.136 204.12 100.136ZM358.568 195.88C367.272 195.88 374.525 194.045 380.328 190.376C386.216 186.621 390.824 181.117 394.152 173.864L420.52 181.928C417.789 188.157 414.376 193.704 410.28 198.568C406.184 203.347 401.491 207.4 396.2 210.728C390.995 213.971 385.192 216.445 378.792 218.152C372.477 219.944 365.736 220.84 358.568 220.84C348.413 220.84 339.155 219.091 330.792 215.592C322.429 212.093 315.261 207.144 309.288 200.744C303.315 194.344 298.707 186.664 295.464 177.704C292.221 168.659 290.6 158.717 290.6 147.88C290.6 136.872 292.221 126.888 295.464 117.928C298.792 108.883 303.4 101.203 309.288 94.888C315.176 88.488 322.259 83.5813 330.536 80.168C338.899 76.6693 348.157 74.92 358.312 74.92C369.064 74.92 378.579 76.7973 386.856 80.552C395.133 84.3067 402.003 89.6827 407.464 96.68C413.011 103.592 417.021 112.04 419.496 122.024C422.056 131.923 422.995 143.059 422.312 155.432H395.048L394.92 137.384C394.493 125.181 391.08 115.752 384.68 109.096C378.28 102.355 369.491 98.984 358.312 98.984C352.083 98.984 346.536 100.093 341.672 102.312C336.808 104.445 332.712 107.603 329.384 111.784C326.056 115.965 323.496 121.085 321.704 127.144C319.912 133.117 319.016 139.901 319.016 147.496C319.016 155.091 319.912 161.917 321.704 167.976C323.496 173.949 326.099 179.027 329.512 183.208C332.925 187.304 337.064 190.461 341.928 192.68C346.877 194.813 352.424 195.88 358.568 195.88ZM416.68 134.568L422.312 155.432H313.384L314.024 134.568H416.68ZM503.638 195.88C512.342 195.88 519.595 194.045 525.398 190.376C531.286 186.621 535.894 181.117 539.222 173.864L565.59 181.928C562.859 188.157 559.446 193.704 555.35 198.568C551.254 203.347 546.561 207.4 541.27 210.728C536.065 213.971 530.262 216.445 523.862 218.152C517.547 219.944 510.806 220.84 503.638 220.84C493.483 220.84 484.225 219.091 475.862 215.592C467.499 212.093 460.331 207.144 454.358 200.744C448.385 194.344 443.777 186.664 440.534 177.704C437.291 168.659 435.67 158.717 435.67 147.88C435.67 136.872 437.291 126.888 440.534 117.928C443.862 108.883 448.47 101.203 454.358 94.888C460.246 88.488 467.329 83.5813 475.606 80.168C483.969 76.6693 493.227 74.92 503.382 74.92C514.134 74.92 523.649 76.7973 531.926 80.552C540.203 84.3067 547.073 89.6827 552.534 96.68C558.081 103.592 562.091 112.04 564.566 122.024C567.126 131.923 568.065 143.059 567.382 155.432H540.118L539.99 137.384C539.563 125.181 536.15 115.752 529.75 109.096C523.35 102.355 514.561 98.984 503.382 98.984C497.153 98.984 491.606 100.093 486.742 102.312C481.878 104.445 477.782 107.603 474.454 111.784C471.126 115.965 468.566 121.085 466.774 127.144C464.982 133.117 464.086 139.901 464.086 147.496C464.086 155.091 464.982 161.917 466.774 167.976C468.566 173.949 471.169 179.027 474.582 183.208C477.995 187.304 482.134 190.461 486.998 192.68C491.947 194.813 497.494 195.88 503.638 195.88ZM561.75 134.568L567.382 155.432L458.454 155.432L459.094 134.568L561.75 134.568ZM584.67 278.44V78.76L611.422 78.76V278.44H584.67ZM655.838 220.84C645.854 220.84 637.406 219.048 630.494 215.464C623.582 211.795 617.907 206.717 613.47 200.232C609.118 193.747 605.961 186.024 603.998 177.064C602.035 168.104 601.054 158.333 601.054 147.752C601.054 137.171 602.035 127.443 603.998 118.568C606.046 109.608 609.246 101.928 613.598 95.528C618.035 89.0427 623.71 84.008 630.622 80.424C637.534 76.7547 645.939 74.92 655.838 74.92C665.225 74.92 673.758 76.712 681.438 80.296C689.118 83.88 695.689 88.9147 701.15 95.4C706.697 101.8 710.963 109.48 713.95 118.44C717.022 127.315 718.558 137.085 718.558 147.752C718.558 158.589 717.022 168.488 713.95 177.448C710.878 186.408 706.569 194.088 701.022 200.488C695.561 206.888 688.99 211.88 681.31 215.464C673.63 219.048 665.139 220.84 655.838 220.84ZM650.718 195.624C657.289 195.624 663.049 194.472 667.998 192.168C672.947 189.779 677.043 186.493 680.286 182.312C683.614 178.045 686.089 173.011 687.71 167.208C689.331 161.32 690.142 154.835 690.142 147.752C690.142 140.584 689.289 134.056 687.582 128.168C685.961 122.28 683.486 117.288 680.158 113.192C676.915 109.011 672.819 105.811 667.87 103.592C663.006 101.288 657.289 100.136 650.718 100.136C643.977 100.136 638.131 101.331 633.182 103.72C628.318 106.024 624.265 109.267 621.022 113.448C617.779 117.629 615.347 122.621 613.726 128.424C612.19 134.227 611.422 140.669 611.422 147.752C611.422 155.091 612.233 161.704 613.854 167.592C615.561 173.48 618.078 178.515 621.406 182.696C624.734 186.792 628.83 189.992 633.694 192.296C638.558 194.515 644.233 195.624 650.718 195.624ZM792.11 220.712C783.662 220.712 776.025 219.773 769.198 217.896C762.371 216.104 756.355 213.416 751.15 209.832C746.03 206.248 741.806 201.811 738.478 196.52C735.15 191.229 732.761 185.128 731.31 178.216L758.83 173.864C760.793 181.629 764.59 187.475 770.222 191.4C775.939 195.24 783.406 197.16 792.622 197.16C801.155 197.16 807.939 195.496 812.974 192.168C818.009 188.84 820.526 184.189 820.526 178.216C820.526 176.424 820.313 174.845 819.886 173.48C819.545 172.115 818.862 170.835 817.838 169.64C816.899 168.36 815.577 167.251 813.87 166.312C812.249 165.288 810.158 164.264 807.598 163.24C805.209 162.387 802.009 161.363 797.998 160.168C794.073 158.973 789.465 157.651 784.174 156.2C776.579 154.237 769.795 152.147 763.822 149.928C757.849 147.709 752.771 145.064 748.59 141.992C744.494 138.835 741.337 135.165 739.118 130.984C736.899 126.803 735.79 121.811 735.79 116.008C735.79 109.864 737.07 104.275 739.63 99.24C742.275 94.2053 745.945 89.896 750.638 86.312C755.417 82.6427 761.091 79.8267 767.662 77.864C774.318 75.9013 781.699 74.92 789.806 74.92C797.657 74.92 804.867 75.9013 811.438 77.864C818.094 79.7413 823.897 82.472 828.846 86.056C833.881 89.5547 837.977 93.8213 841.134 98.856C844.291 103.805 846.297 109.352 847.15 115.496L819.758 120.488C819.331 117.075 818.265 114.003 816.558 111.272C814.937 108.456 812.761 106.109 810.03 104.232C807.385 102.355 804.27 100.904 800.686 99.88C797.102 98.856 793.177 98.344 788.91 98.344C785.07 98.344 781.529 98.7707 778.286 99.624C775.129 100.477 772.355 101.629 769.966 103.08C767.662 104.531 765.827 106.28 764.462 108.328C763.182 110.291 762.542 112.509 762.542 114.984C762.542 117.373 763.182 119.421 764.462 121.128C765.742 122.835 767.449 124.328 769.582 125.608C771.715 126.888 774.19 127.997 777.006 128.936C779.822 129.875 782.766 130.813 785.838 131.752C789.422 132.776 793.39 133.971 797.742 135.336C802.179 136.616 806.873 137.981 811.822 139.432C818.307 141.395 823.811 143.571 828.334 145.96C832.942 148.349 836.697 151.037 839.598 154.024C842.499 157.011 844.59 160.424 845.87 164.264C847.235 168.019 847.918 172.285 847.918 177.064C847.918 183.805 846.638 189.907 844.078 195.368C841.518 200.744 837.806 205.309 832.942 209.064C828.163 212.819 822.318 215.677 815.406 217.64C808.579 219.688 800.814 220.712 792.11 220.712ZM928.592 220.84C918.267 220.84 908.923 219.091 900.56 215.592C892.283 212.008 885.2 206.973 879.312 200.488C873.424 194.003 868.859 186.28 865.616 177.32C862.459 168.36 860.88 158.504 860.88 147.752C860.88 137 862.459 127.144 865.616 118.184C868.859 109.224 873.424 101.544 879.312 95.144C885.2 88.744 892.325 83.7947 900.688 80.296C909.051 76.712 918.352 74.92 928.592 74.92C938.917 74.92 948.261 76.712 956.624 80.296C964.987 83.7947 972.112 88.7867 978 95.272C983.888 101.672 988.411 109.352 991.568 118.312C994.811 127.272 996.432 137.085 996.432 147.752C996.432 158.589 994.811 168.488 991.568 177.448C988.411 186.408 983.845 194.131 977.872 200.616C971.984 207.016 964.859 212.008 956.496 215.592C948.219 219.091 938.917 220.84 928.592 220.84ZM928.592 195.624C934.992 195.624 940.624 194.515 945.488 192.296C950.437 189.992 954.576 186.792 957.904 182.696C961.232 178.515 963.749 173.523 965.456 167.72C967.163 161.832 968.016 155.176 968.016 147.752C968.016 140.413 967.163 133.8 965.456 127.912C963.749 121.939 961.232 116.904 957.904 112.808C954.576 108.712 950.437 105.597 945.488 103.464C940.624 101.245 934.992 100.136 928.592 100.136C922.107 100.136 916.389 101.245 911.44 103.464C906.576 105.683 902.48 108.84 899.152 112.936C895.909 117.032 893.435 122.024 891.728 127.912C890.107 133.8 889.296 140.413 889.296 147.752C889.296 155.176 890.149 161.875 891.856 167.848C893.563 173.736 896.08 178.728 899.408 182.824C902.736 186.92 906.832 190.077 911.696 192.296C916.645 194.515 922.277 195.624 928.592 195.624ZM1041.07 154.792C1041.07 161.533 1041.88 167.464 1043.5 172.584C1045.13 177.704 1047.43 181.971 1050.42 185.384C1053.4 188.712 1057.03 191.272 1061.3 193.064C1065.65 194.771 1070.55 195.624 1076.02 195.624C1081.48 195.624 1086.38 194.771 1090.74 193.064C1095.09 191.357 1098.8 188.84 1101.87 185.512C1104.94 182.099 1107.29 177.832 1108.91 172.712C1110.53 167.592 1111.34 161.619 1111.34 154.792L1117.36 179.624C1116.51 184.403 1115.1 189.267 1113.14 194.216C1111.17 199.08 1108.31 203.517 1104.56 207.528C1100.89 211.453 1096.2 214.653 1090.48 217.128C1084.76 219.603 1077.77 220.84 1069.49 220.84C1061.3 220.84 1053.79 219.645 1046.96 217.256C1040.13 214.867 1034.29 211.155 1029.42 206.12C1024.65 201.085 1020.93 194.771 1018.29 187.176C1015.64 179.496 1014.32 170.451 1014.32 160.04V78.76H1041.07V154.792ZM1138.1 78.76V217L1111.34 217V78.76L1138.1 78.76ZM1168.76 217V28.84L1195.51 28.84V217H1168.76ZM1233.82 264.744L1213.85 249.896C1223.75 238.12 1231.86 225.875 1238.17 213.16C1244.57 200.36 1249.22 187.304 1252.13 173.992C1255.11 160.595 1256.61 146.771 1256.61 132.52C1256.52 110.76 1253.06 90.1947 1246.24 70.824C1239.5 51.368 1228.7 32.808 1213.85 15.144L1233.82 0.29599C1243.72 11.7307 1252.25 24.7013 1259.42 39.208C1266.59 53.7147 1272.05 68.9467 1275.81 84.904C1279.56 100.861 1281.31 116.733 1281.05 132.52C1281.31 148.307 1279.56 164.179 1275.81 180.136C1272.05 196.093 1266.59 211.325 1259.42 225.832C1252.25 240.339 1243.72 253.309 1233.82 264.744Z" fill="#F0F0F0"/>
</svg>
